<svg id="Layer_1" data-name="Layer 1" xmlns="http://www.w3.org/2000/svg" viewBox="0 0 83.89 80">
  <defs>
    <style>
      .cls-1 {
        fill: #fb4d57;
      }
    </style>
  </defs>
  <title>play-symbol-stroke</title>
  <path class="cls-1" d="M258.41,199.94a11.26,11.26,0,0,1,3.12,1.16l52.16,26.64a13.12,13.12,0,0,1,5.36,4.92,12.81,12.81,0,0,1,1.88,6.92,11.8,11.8,0,0,1-2.08,6.72,14.42,14.42,0,0,1-5.56,4.72l-57.12,27a11.4,11.4,0,0,1-3,1.16,13.88,13.88,0,0,1-3,.36,13.27,13.27,0,0,1-5.36-1.08,11.18,11.18,0,0,1-4.16-3.08,12.36,12.36,0,0,1-2.88-4.76,13,13,0,0,1-.56-5.56l5-53.36a12.67,12.67,0,0,1,4-8.6,13.21,13.21,0,0,1,8.92-3.56A16,16,0,0,1,258.41,199.94ZM254,211.54a2.1,2.1,0,0,0-.44,1.4l-5,53.28q-0.08,1.84,1.52,1.92a1.23,1.23,0,0,0,.36,0,1.09,1.09,0,0,0,.36-0.36l57.52-26.64a1.78,1.78,0,0,0,1.2-1.36,1.63,1.63,0,0,0-1.2-1.28l-52.16-27A1.4,1.4,0,0,0,255,211,1.36,1.36,0,0,0,254,211.54Z" transform="translate(-237.04 -199.58)"/>
</svg>
